<svg xmlns="http://www.w3.org/2000/svg" viewBox="0 0 64 64" role="img" aria-labelledby="title">
  <title id="title">交通出行 - 公交地铁</title>
  <path fill="#3290DF" d="M32 2a30 30 0 1 1 0 60 30 30 0 1 1 0-60Z"/>
  <g transform="translate(17 17) scale(1.25)"><path fill="#fff" d="M7 2V5H16.1707C16.472 4.14759 17.1476 3.47199 18 3.17071V2H20V3.17071C21.1652 3.58254 22 4.69378 22 6C22 7.30622 21.1652 8.41746 20 8.82929V19H8.82929C8.52801 19.8524 7.85241 20.528 7 20.8293V22H5V20.8293C4.14759 20.528 3.47199 19.8524 3.17071 19H2V17H3.17071C3.47199 16.1476 4.14759 15.472 5 15.1707L5 7H2V5H5V2H7ZM7 7V15.1707C7.85241 15.472 8.52801 16.1476 8.82929 17H18V8.82929C17.1476 8.52801 16.472 7.85241 16.1707 7H7Z"></path></g>
</svg>
